<?xml version="1.0" standalone="no"?><!DOCTYPE svg PUBLIC "-//W3C//DTD SVG 1.1//EN" "http://www.w3.org/Graphics/SVG/1.1/DTD/svg11.dtd"><svg class="icon" width="64px" height="64.00px" viewBox="0 0 1024 1024" version="1.1" xmlns="http://www.w3.org/2000/svg"><path fill="#2B4EA2" d="M792.4736 847.616H243.6608c-72.9088 0-132.1984-59.2896-132.1984-132.1984V444.2112c0-72.9088 59.2896-132.1984 132.1984-132.1984h32c15.1552 0 28.4672-9.1136 33.9456-23.2448l7.3728-18.944c19.8656-51.2512 68.2496-84.3776 123.2384-84.3776h149.7088c51.5072 0 98.6624 30.2592 120.1664 77.056l12.9536 28.2624a36.51584 36.51584 0 0 0 33.0752 21.248h36.352c72.9088 0 132.1984 59.2896 132.1984 132.1984v271.2064c-0.0512 72.9088-59.3408 132.1984-132.1984 132.1984zM243.6608 363.264c-44.6464 0-80.9984 36.352-80.9984 80.9984v271.2064c0 44.6464 36.3008 80.9984 80.9984 80.9984h548.8128c44.6464 0 80.9984-36.352 80.9984-80.9984V444.2112c0-44.6464-36.3008-80.9984-80.9984-80.9984h-36.352c-34.1504 0-65.3824-20.0704-79.616-51.0976l-12.9536-28.2624c-13.1584-28.672-42.0352-47.2064-73.6256-47.2064H440.1664c-33.6896 0-63.3344 20.2752-75.52 51.6608l-7.3728 18.944c-13.2096 33.9456-45.2608 55.9104-81.664 55.9104h-31.9488z"  /><path fill="#2B4EA2" d="M520.6016 726.272c-82.8416 0-150.2208-67.3792-150.2208-150.2208s67.3792-150.2208 150.2208-150.2208 150.2208 67.3792 150.2208 150.2208-67.4304 150.2208-150.2208 150.2208z m0-249.1904c-54.5792 0-99.0208 44.3904-99.0208 99.0208s44.4416 99.0208 99.0208 99.0208 99.0208-44.3904 99.0208-99.0208-44.4416-99.0208-99.0208-99.0208zM803.8912 473.344h-71.8848c-14.1312 0-25.6-11.4688-25.6-25.6s11.4688-25.6 25.6-25.6h71.8848c14.1312 0 25.6 11.4688 25.6 25.6s-11.4176 25.6-25.6 25.6z"  /></svg>