<?xml version="1.0" standalone="no"?><!DOCTYPE svg PUBLIC "-//W3C//DTD SVG 1.1//EN" "http://www.w3.org/Graphics/SVG/1.1/DTD/svg11.dtd"><svg class="icon" width="64px" height="64.00px" viewBox="0 0 1024 1024" version="1.1" xmlns="http://www.w3.org/2000/svg"><path fill="#2B4EA2" d="M512 160c-121.408 0-224 92.672-224 211.2h64c0-79.104 69.696-147.2 160-147.2s160 68.096 160 147.2c0 56.576-49.6 112-112.64 135.936l-0.192 0.064C513.536 524.8 480 567.68 480 619.52V704h64V619.52c0-22.784 14.72-43.52 38.144-52.544C659.456 537.6 736 464.064 736 371.2c0-118.528-102.592-211.2-224-211.2zM512 768a48 48 0 1 0 0 96 48 48 0 0 0 0-96z"  fill-opacity=".9" /></svg>