<?xml version="1.0" standalone="no"?><!DOCTYPE svg PUBLIC "-//W3C//DTD SVG 1.1//EN" "http://www.w3.org/Graphics/SVG/1.1/DTD/svg11.dtd"><svg class="icon" width="64px" height="64.00px" viewBox="0 0 1024 1024" version="1.1" xmlns="http://www.w3.org/2000/svg"><path fill="#2B4EA2" d="M525.409524 193.828571c-117.028571 0-242.590476 29.257143-242.590476 92.647619V329.142857c9.752381 20.72381 92.647619 60.952381 242.590476 60.952381s232.838095-40.228571 242.590476-60.952381v-42.666667c0-63.390476-125.561905-92.647619-242.590476-92.647619z m0 118.247619c-95.085714 0-171.885714-23.161905-171.885714-49.980952 0-28.038095 76.8-51.2 171.885714-51.2s171.885714 23.161905 171.885714 51.2c0 28.038095-78.019048 49.980952-171.885714 49.980952zM282.819048 399.847619v86.552381c9.752381 20.72381 92.647619 60.952381 242.590476 60.952381s232.838095-40.228571 242.590476-60.952381v-86.552381c-58.514286 31.695238-152.380952 46.32381-242.590476 46.32381s-185.295238-14.628571-242.590476-46.32381zM282.819048 557.104762v86.552381c9.752381 20.72381 92.647619 60.952381 242.590476 60.952381s232.838095-40.228571 242.590476-60.952381v-86.552381c-58.514286 31.695238-152.380952 46.32381-242.590476 46.323809s-185.295238-15.847619-242.590476-46.323809zM282.819048 713.142857v32.914286c0 63.390476 125.561905 92.647619 242.590476 92.647619 117.028571 0 242.590476-29.257143 242.590476-92.647619v-32.914286c-58.514286 31.695238-152.380952 46.32381-242.590476 46.32381s-185.295238-14.628571-242.590476-46.32381z"  /></svg>