<?xml version="1.0" standalone="no"?><!DOCTYPE svg PUBLIC "-//W3C//DTD SVG 1.1//EN" "http://www.w3.org/Graphics/SVG/1.1/DTD/svg11.dtd"><svg class="icon" width="64px" height="64.00px" viewBox="0 0 1024 1024" version="1.1" xmlns="http://www.w3.org/2000/svg"><path fill="#2B4EA2" d="M330.666667 609.28a32 32 0 0 1 5.376 41.472l-2.901334 3.754667-171.221333 191.018666H448a32 32 0 0 1 31.701333 27.648l0.298667 4.352a32 32 0 0 1-27.648 31.701334l-4.352 0.298666H90.325333a32 32 0 0 1-26.624-49.792l2.773334-3.541333 219.008-244.394667a32 32 0 0 1 45.226666-2.474666z m495.104-79.274667a42.666667 42.666667 0 0 1 36.949333 21.333334l82.048 142.08a42.666667 42.666667 0 0 1 0 42.666666l-82.048 142.08a42.666667 42.666667 0 0 1-36.949333 21.333334H661.76a42.666667 42.666667 0 0 1-36.949333-21.333334l-82.048-142.08a42.666667 42.666667 0 0 1 0-42.666666l82.048-142.08a42.666667 42.666667 0 0 1 36.949333-21.333334h164.053333z m-12.373334 64h-139.349333l-69.76 120.746667 69.76 120.746667h139.392l69.76-120.746667-69.76-120.746667z m-69.589333 73.984a46.421333 46.421333 0 1 1 0 92.842667 46.421333 46.421333 0 0 1 0-92.842667zM448 97.621333a234.666667 234.666667 0 1 1 0 469.333334 234.666667 234.666667 0 0 1 0-469.333334z m0 64a170.666667 170.666667 0 1 0 0 341.333334 170.666667 170.666667 0 0 0 0-341.333334z"  /></svg>