<?xml version="1.0" standalone="no"?><!DOCTYPE svg PUBLIC "-//W3C//DTD SVG 1.1//EN" "http://www.w3.org/Graphics/SVG/1.1/DTD/svg11.dtd"><svg class="icon" width="64px" height="64.00px" viewBox="0 0 1024 1024" version="1.1" xmlns="http://www.w3.org/2000/svg"><path fill="#BC1142" d="M384 256H256v128h128V256z"  fill-opacity=".9" /><path fill="#BC1142" d="M160 128a32 32 0 0 0-32 32v320a32 32 0 0 0 32 32h320a32 32 0 0 0 32-32v-320a32 32 0 0 0-32-32h-320zM192 192h256v256H192V192zM672 128a32 32 0 0 0-32 32v192a32 32 0 0 0 32 32h192a32 32 0 0 0 32-32v-192a32 32 0 0 0-32-32h-192z m32 192V192h128v128h-128zM640 672a32 32 0 0 1 32-32h192a32 32 0 0 1 32 32v192a32 32 0 0 1-32 32h-192a32 32 0 0 1-32-32v-192z m64 160h128v-128h-128v128zM160 640a32 32 0 0 0-32 32v192a32 32 0 0 0 32 32h192a32 32 0 0 0 32-32v-192a32 32 0 0 0-32-32h-192z m32 64h128v128H192v-128zM896 480h-256v64h256v-64zM544 704v192h-64v-192h64zM544 640V576h-64v64h64z"  fill-opacity=".9" /></svg>