<?xml version="1.0" standalone="no"?><!DOCTYPE svg PUBLIC "-//W3C//DTD SVG 1.1//EN" "http://www.w3.org/Graphics/SVG/1.1/DTD/svg11.dtd"><svg class="icon" width="64px" height="64.00px" viewBox="0 0 1024 1024" version="1.1" xmlns="http://www.w3.org/2000/svg"><path fill="#BC1142" d="M512 960a448 448 0 1 1 448-448 448.512 448.512 0 0 1-448 448zM512 128a384 384 0 1 0 384 384 384.448 384.448 0 0 0-384-384z m-108.8 591.68a19.2 19.2 0 0 1-13.376-5.44 19.2 19.2 0 0 1-5.824-13.824V323.52a19.2 19.2 0 0 1 19.2-19.2 19.2 19.2 0 0 1 9.536 2.56l326.4 188.48a19.2 19.2 0 0 1 0 33.216L412.8 716.8a19.2 19.2 0 0 1-9.6 2.88zM448 401.152v221.696L640 512z"  fill-opacity="0.9" opacity=".9" /></svg>