<?xml version="1.0" standalone="no"?><!DOCTYPE svg PUBLIC "-//W3C//DTD SVG 1.1//EN" "http://www.w3.org/Graphics/SVG/1.1/DTD/svg11.dtd"><svg class="icon" width="64px" height="64.00px" viewBox="0 0 1024 1024" version="1.1" xmlns="http://www.w3.org/2000/svg"><path fill="#2B4EA2" d="M512 182.857143c-181.638095 0-329.142857 147.504762-329.142857 329.142857s147.504762 329.142857 329.142857 329.142857 329.142857-147.504762 329.142857-329.142857-147.504762-329.142857-329.142857-329.142857z m41.447619 131.657143L547.352381 621.714286h-54.857143l-6.095238-307.2h67.047619z m-3.657143 418.133333c-7.314286 7.314286-17.066667 12.190476-26.819047 12.190476-12.190476 0-21.942857-3.657143-30.476191-12.190476-7.314286-7.314286-12.190476-17.066667-12.190476-28.038095 0-10.971429 3.657143-20.72381 12.190476-28.038095 7.314286-7.314286 17.066667-10.971429 28.038095-10.971429 10.971429 0 20.72381 3.657143 28.038096 12.190476 7.314286 7.314286 12.190476 17.066667 12.190476 28.038095 0 9.752381-3.657143 19.504762-10.971429 26.819048z"  /></svg>